<svg width="58" height="48" viewBox="0 0 48 49" fill="none" xmlns="http://www.w3.org/2000/svg">
<path d="M24 48.89C20.72 48.89 17.62 48.26 14.7 47C11.78 45.74 9.23 44.02 7.05 41.84C4.87 39.66 3.15 37.11 1.89 34.19C0.63 31.27 0 28.17 0 24.89C0 21.61 0.63 18.51 1.89 15.59C3.15 12.67 4.87 10.12 7.05 7.94C9.23 5.76 11.78 4.04 14.7 2.78C17.62 1.52 20.72 0.89 24 0.89C27.28 0.89 30.38 1.52 33.3 2.78C36.22 4.04 38.77 5.76 40.95 7.94C43.13 10.12 44.85 12.67 46.11 15.59C47.37 18.51 48 21.61 48 24.89C48 28.17 47.37 31.27 46.11 34.19C44.85 37.11 43.13 39.66 40.95 41.84C38.77 44.02 36.22 45.74 33.3 47C30.38 48.26 27.28 48.89 24 48.89ZM24 45.29C29.6 45.29 34.4 43.29 38.4 39.29C42.4 35.29 44.4 30.49 44.4 24.89C44.4 19.29 42.4 14.49 38.4 10.49C34.4 6.49 29.6 4.49 24 4.49C18.4 4.49 13.6 6.49 9.6 10.49C5.6 14.49 3.6 19.29 3.6 24.89C3.6 30.49 5.6 35.29 9.6 39.29C13.6 43.29 18.4 45.29 24 45.29Z" fill="#323238"/>
<line x1="20" y1="36" x2="20" y2="15" stroke="#323238" stroke-width="4"/>
<line x1="28" y1="36" x2="28" y2="15" stroke="#323238" stroke-width="4"/>
</svg>
